<svg xmlns="http://www.w3.org/2000/svg" viewBox="0 0 877 640" fill="none" >
<path d="M73.2773 562.498L221.767 303.469L206.449 294.694L57.9667 553.714C53.6133 552.278 48.9653 551.49 44.132 551.49C19.7587 551.49 0 571.248 0 595.621C0 619.994 19.7587 639.753 44.132 639.753C68.504 639.753 88.2627 619.994 88.2627 595.621C88.2627 582.422 82.4613 570.585 73.2773 562.498Z" fill="#7FC3BA"/>
<path d="M472.796 0.000106812C448.422 0.000106812 428.664 19.7574 428.664 44.1321C428.664 51.9321 430.696 59.2548 434.248 65.6148L299.724 180.557L311.228 193.947L445.758 78.9988C453.229 84.8001 462.605 88.2628 472.796 88.2628C497.169 88.2628 516.928 68.5041 516.928 44.1321C516.928 19.7574 497.169 0.000106812 472.796 0.000106812Z" fill="#1E3063"/>
<path d="M282.442 393.514C279.798 395.698 278.477 398.586 278.477 402.176C278.477 405.767 280.099 408.627 283.347 410.752C286.593 412.879 294.062 415.379 305.758 418.251C317.451 421.124 326.53 425.448 332.994 431.223C339.459 436.999 342.693 445.416 342.693 456.479C342.693 467.54 338.555 476.504 330.281 483.371C322.006 490.239 311.087 493.671 297.526 493.671C277.987 493.671 260.403 486.431 244.775 471.951L261.153 451.867C274.426 463.532 286.722 469.364 298.043 469.364C303.099 469.364 307.078 468.274 309.981 466.09C312.883 463.907 314.334 460.96 314.334 457.254C314.334 453.547 312.797 450.603 309.722 448.419C306.647 446.236 300.57 444.023 291.493 441.783C277.126 438.394 266.626 433.952 259.989 428.466C253.351 422.978 250.033 414.386 250.033 402.694C250.033 391 254.241 381.978 262.661 375.628C271.078 369.279 281.581 366.103 294.165 366.103C302.381 366.103 310.611 367.512 318.858 370.327C327.106 373.144 334.301 377.136 340.451 382.308L326.489 402.478C315.801 394.375 304.737 390.296 293.303 390.238C288.705 390.238 285.085 391.331 282.442 393.514Z" fill="#C72127"/>
<path d="M420.309 422.216C416.661 419.172 412.221 417.648 406.995 417.648C401.764 417.648 396.977 419.228 392.641 422.388C388.304 425.55 385.759 429.831 385.015 435.232H426.732C426.097 429.602 423.957 425.263 420.309 422.216ZM445.781 478.502C435.093 488.615 422.536 493.671 408.115 493.671C393.689 493.671 381.767 489.232 372.344 480.355C362.917 471.476 358.208 459.568 358.208 444.627C358.208 429.688 363.004 417.807 372.603 408.986C382.197 400.164 393.516 395.755 406.563 395.755C419.605 395.755 430.697 399.692 439.835 407.563C448.971 415.436 453.539 426.268 453.539 440.059V454.194H384.325C385.128 459.366 387.828 463.59 392.427 466.864C397.023 470.14 402.223 471.778 408.028 471.778C417.337 471.778 424.977 468.675 430.956 462.468L445.781 478.502Z" fill="#C72127"/>
<path d="M499.049 439.369V492.292H472.501V397.307H499.049V407.908C507.035 399.805 516.029 395.755 526.028 395.755C536.027 395.755 544.415 399.288 551.197 406.356C557.975 413.425 561.368 422.82 561.368 434.541V492.292H534.82V438.593C534.82 423.999 529.476 416.7 518.788 416.7C513.499 416.7 508.889 418.625 504.952 422.475C501.015 426.327 499.049 431.956 499.049 439.369Z" fill="#C72127"/>
<path d="M656.785 462.771C656.785 472.108 653.337 479.594 646.442 485.224C639.546 490.856 630.81 493.671 620.238 493.671C613.17 493.671 605.813 492.407 598.173 489.879C590.529 487.352 583.633 483.616 577.486 478.674L589.122 462.124C599.004 469.768 609.55 473.588 620.756 473.588C624.145 473.588 626.844 472.914 628.858 471.563C630.869 470.214 631.874 468.416 631.874 466.175C631.874 463.935 630.496 461.866 627.737 459.97C624.98 458.074 620.984 456.306 615.757 454.668C610.526 453.031 606.516 451.623 603.73 450.444C600.945 449.268 597.797 447.558 594.294 445.316C587.109 440.834 583.52 434.211 583.52 425.448C583.52 416.687 587.054 409.546 594.121 404.03C601.189 398.512 610.309 395.755 621.486 395.755C632.665 395.755 643.825 399.52 654.976 407.047L645.149 424.715C636.929 419.086 628.728 416.255 620.538 416.226C612.35 416.196 608.257 418.424 608.257 422.906C608.257 425.378 609.55 427.315 612.137 428.724C614.722 430.132 619.014 431.784 625.021 433.68C631.026 435.576 635.292 437.028 637.822 438.032C640.349 439.038 643.366 440.604 646.873 442.731C653.478 446.754 656.785 453.432 656.785 462.771Z" fill="#C72127"/>
<path d="M710.57 460.444C715.166 466.162 721.345 469.02 729.102 469.02C736.86 469.02 743.008 466.162 747.548 460.444C752.085 454.725 754.357 446.926 754.357 437.042V368.862H781.853V437.904C781.853 455.776 776.909 469.509 767.028 479.105C757.144 488.701 744.5 493.5 729.102 493.5C713.701 493.5 701.03 488.672 691.09 479.018C681.148 469.365 676.18 455.66 676.18 437.904V368.862H703.676V437.042C703.676 446.926 705.972 454.725 710.57 460.444Z" fill="#C72127"/>
<path d="M876.839 462.771C876.839 472.108 873.392 479.594 866.496 485.224C859.6 490.856 850.864 493.671 840.292 493.671C833.226 493.671 825.867 492.407 818.227 489.879C810.583 487.352 803.688 483.616 797.54 478.674L809.176 462.124C819.058 469.768 829.604 473.588 840.81 473.588C844.199 473.588 846.899 472.914 848.912 471.563C850.923 470.214 851.928 468.416 851.928 466.175C851.928 463.935 850.55 461.866 847.791 459.97C845.034 458.074 841.038 456.306 835.811 454.668C830.58 453.031 826.571 451.623 823.784 450.444C820.999 449.268 817.851 447.558 814.348 445.316C807.163 440.834 803.574 434.211 803.574 425.448C803.574 416.687 807.108 409.546 814.175 404.03C821.244 398.512 830.363 395.755 841.54 395.755C852.719 395.755 863.879 399.52 875.03 407.047L865.203 424.715C856.983 419.086 848.782 416.255 840.592 416.226C832.404 416.196 828.311 418.424 828.311 422.906C828.311 425.378 829.604 427.315 832.191 428.724C834.776 430.132 839.068 431.784 845.075 433.68C851.082 435.576 855.346 437.028 857.876 438.032C860.403 439.038 863.42 440.604 866.927 442.731C873.534 446.754 876.839 453.432 876.839 462.771Z" fill="#C72127"/>
<path d="M332.377 234.914C332.377 189.834 295.833 153.29 250.753 153.29C205.673 153.29 169.128 189.834 169.128 234.914C169.128 279.994 205.673 316.538 250.753 316.538C295.833 316.538 332.377 279.994 332.377 234.914Z" fill="white"/>
<path d="M250.753 305.525C211.818 305.525 180.142 273.849 180.142 234.914C180.142 195.979 211.818 164.303 250.753 164.303C289.687 164.303 321.363 195.979 321.363 234.914C321.363 273.849 289.687 305.525 250.753 305.525ZM250.753 146.651C213.643 146.651 181.905 169.563 168.855 202.003L96.7326 182.442C96.8086 181.385 96.8619 180.318 96.8619 179.241C96.8619 154.867 77.1032 135.109 52.7299 135.109C28.3566 135.109 8.5979 154.867 8.5979 179.241C8.5979 203.613 28.3566 223.371 52.7299 223.371C69.8206 223.371 84.6326 213.649 91.9632 199.439L163.954 218.965C163.009 224.139 162.49 229.465 162.49 234.914C162.49 283.661 202.006 323.177 250.753 323.177C299.499 323.177 339.015 283.661 339.015 234.914C339.015 186.167 299.499 146.651 250.753 146.651Z" fill="#C72127"/>
    </svg>